<?xml version="1.0" standalone="no"?><!DOCTYPE svg PUBLIC "-//W3C//DTD SVG 1.1//EN"
  "http://www.w3.org/Graphics/SVG/1.1/DTD/svg11.dtd">
<svg xmlns:xlink="http://www.w3.org/1999/xlink" t="1686481015768" class="icon" viewBox="0 0 1024 1024" version="1.1"
     xmlns="http://www.w3.org/2000/svg" p-id="12517" width="200" height="200">
  <path
    d="M917.242 405.392c0 223.792-181.442 405.206-405.25 405.206S106.756 629.184 106.756 405.392C106.756 181.586 288.184 0.156 511.992 0.156s405.25 181.43 405.25 405.236z"
    fill="#9ED36A" p-id="12518"></path>
  <path
    d="M511.994 0.156c-7.154 0-14.262 0.188-21.322 0.562 213.888 11.09 383.9 188.022 383.9 404.674 0 216.636-170.012 393.584-383.9 404.642 7.06 0.376 14.168 0.562 21.322 0.562 223.808 0 405.25-181.414 405.25-405.206C917.242 181.586 735.8 0.156 511.994 0.156z"
    fill="#FFFFFF" opacity=".2" p-id="12519"></path>
  <path
    d="M388.952 488.18c-8.544-8.124-22.04-7.78-30.164 0.766-8.106 8.528-7.778 22.04 0.766 30.146l134.99 128.304 29.396-30.896-134.988-128.32zM657.386 393.194c-6.812-9.608-20.122-11.888-29.742-5.078l-126.804 89.754 24.648 34.818 126.774-89.77c9.62-6.81 11.902-20.12 5.124-29.724z"
    fill="#7F4545" p-id="12520"></path>
  <path
    d="M511.994 298.69c-11.778 0-21.322 9.56-21.322 21.338v703.816h42.642V320.028c-0.002-11.778-9.544-21.338-21.32-21.338z"
    fill="#965353" p-id="12521"></path>
  <path
    d="M575.972 981.17h-127.96c-11.778 0-21.338 9.56-21.338 21.37 0 11.746 9.56 21.304 21.338 21.304h127.96c11.778 0 21.336-9.558 21.336-21.304 0-11.81-9.558-21.37-21.336-21.37z"
    fill="#424953" p-id="12522"></path>
  <path
    d="M341.56 341.35c0 23.554-19.088 42.658-42.644 42.658-23.57 0-42.66-19.104-42.66-42.658 0-23.556 19.088-42.644 42.66-42.644 23.556 0 42.644 19.086 42.644 42.644zM682.628 213.436c0 23.554-19.122 42.658-42.676 42.658s-42.676-19.104-42.676-42.658c0-23.556 19.122-42.66 42.676-42.66s42.676 19.102 42.676 42.66zM725.488 576.012c0 23.554-19.118 42.644-42.672 42.644s-42.676-19.09-42.676-42.644 19.122-42.658 42.676-42.658 42.672 19.104 42.672 42.658z"
    fill="#EC5564" p-id="12523"></path>
</svg>
